<?xml version="1.0" encoding="UTF-8"?>
<svg xmlns="http://www.w3.org/2000/svg" viewBox="0 0 934 934" width="934" height="934">
<g transform="translate(0,934) scale(0.1,-0.1)" fill="white" stroke="none">
<path d="M7334 8881 c-66 -40 -112 -121 -185 -326 -26 -74 -69 -193 -135 -370
-15 -38 -41 -113 -60 -165 -33 -95 -48 -137 -164 -460 -108 -303 -150 -423
-171 -490 -11 -36 -24 -74 -29 -85 -6 -11 -21 -54 -34 -95 -56 -175 -68 -194
-257 -438 -48 -61 -187 -205 -264 -272 -185 -161 -253 -103 -164 140 53 147
101 252 276 609 114 233 149 326 138 366 -2 5 -6 22 -9 38 -8 36 -70 103 -117
128 -60 30 -84 25 -145 -32 -42 -41 -54 -48 -54 -33 0 32 -56 90 -115 118 -90
42 -226 33 -368 -27 -136 -58 -386 -270 -533 -454 -124 -156 -262 -399 -313
-553 -33 -99 -47 -120 -171 -252 -281 -299 -570 -486 -751 -488 -31 0 -73 7
-92 15 -71 30 -117 117 -117 226 l0 56 68 5 c73 6 193 43 287 90 274 137 574
439 672 679 104 252 13 457 -218 491 -193 29 -394 -56 -633 -268 -81 -71 -244
-265 -313 -372 -20 -32 -50 -80 -68 -107 -66 -104 -155 -320 -175 -427 -15
-76 -14 -245 0 -303 41 -162 151 -281 315 -340 128 -46 210 -44 385 8 235 71
495 275 692 544 l45 62 5 -90 c5 -76 11 -100 39 -155 80 -159 223 -217 390
-159 128 45 340 242 460 428 l38 59 -6 -85 c-10 -146 29 -238 125 -295 42 -24
57 -27 128 -26 76 1 87 5 171 48 126 65 299 222 396 359 10 14 12 2 13 -70 1
-160 65 -233 203 -233 97 0 133 47 171 225 11 49 43 160 71 246 l51 156 62 11
c33 6 71 14 82 17 17 5 23 2 27 -17 52 -228 159 -409 296 -503 276 -190 612
-157 918 89 182 145 291 295 365 504 66 186 42 302 -61 302 -38 0 -52 -20 -86
-122 -65 -192 -215 -386 -395 -508 -106 -72 -165 -94 -250 -94 -111 0 -178 29
-260 114 -36 36 -73 82 -82 101 -53 109 -67 163 -68 257 l0 63 68 31 c37 18
112 62 167 99 377 253 569 623 433 835 -80 125 -206 152 -397 84 -157 -55
-258 -125 -428 -297 -62 -62 -113 -107 -113 -100 0 7 6 21 14 32 7 11 39 81
71 155 32 74 70 163 86 198 16 35 29 65 29 68 0 6 76 187 106 251 13 28 24 54
24 57 0 4 9 25 20 49 10 23 32 74 49 112 16 39 45 108 66 155 51 118 105 275
105 308 0 50 -53 108 -119 130 -55 19 -171 15 -207 -7z m382 -1377 c22 -21 25
-31 19 -61 -20 -110 -80 -206 -205 -331 -107 -107 -305 -226 -486 -293 -32
-12 -65 -26 -71 -32 -24 -18 -14 14 33 101 144 270 370 520 549 610 77 39 127
41 161 6z m-1977 -281 c28 -24 38 -103 22 -184 -38 -192 -210 -523 -380 -730
-83 -101 -234 -251 -295 -293 -154 -106 -199 -46 -140 186 91 361 290 705 532
922 118 105 211 140 261 99z m-1508 -203 c23 -13 49 -61 49 -92 0 -13 -15 -58
-33 -100 -75 -181 -354 -455 -552 -544 -92 -41 -178 -66 -171 -49 33 86 73
175 88 194 10 13 18 27 18 32 0 15 89 159 137 222 109 142 285 304 365 337 31
12 75 12 99 0z M2517 8679 c-244 -26 -514 -105 -841 -248 -63 -28 -304 -161
-378 -209 -346 -226 -643 -499 -769 -708 -27 -46 -64 -123 -81 -171 -28 -79
-32 -100 -32 -208 -1 -108 2 -127 26 -190 68 -173 202 -275 360 -276 108 -1
248 62 248 111 0 22 -30 44 -74 54 -41 10 -102 74 -115 121 -31 112 1 227 119
425 112 190 374 435 630 591 237 144 567 267 830 310 143 23 339 21 447 -5
144 -35 258 -118 314 -229 94 -185 30 -547 -146 -822 -196 -308 -505 -553
-865 -687 -111 -41 -284 -97 -288 -93 -5 4 40 125 83 225 77 178 94 218 135
310 23 52 53 122 67 155 14 33 29 65 33 70 4 6 35 74 68 152 34 78 82 186 108
240 58 123 94 227 94 270 0 162 -254 235 -371 107 -59 -64 -140 -215 -274
-509 -47 -104 -95 -209 -106 -232 -10 -24 -19 -45 -19 -48 0 -2 -13 -33 -28
-67 -16 -35 -37 -85 -47 -113 -10 -27 -22 -55 -27 -61 -4 -6 -17 -35 -27 -65
-11 -30 -38 -96 -61 -148 -23 -52 -56 -133 -74 -180 -19 -47 -52 -131 -74
-186 -46 -113 -124 -312 -145 -371 -8 -21 -29 -73 -45 -114 -96 -241 -117
-294 -148 -386 -88 -264 -85 -339 18 -408 50 -34 57 -36 138 -36 92 0 144 18
186 65 12 13 40 79 62 147 67 203 206 578 242 653 5 11 19 44 30 74 12 30 29
73 39 95 11 23 26 57 34 77 l14 35 109 -4 c206 -8 483 53 674 148 268 134 555
366 745 601 191 237 320 520 357 784 23 162 -17 378 -97 520 -171 308 -608
484 -1078 434z M6866 5605 c-22 -8 -52 -27 -68 -43 -29 -28 -97 -177 -199
-432 -89 -222 -99 -239 -139 -250 -31 -9 -118 -26 -440 -85 -41 -8 -87 -16
-102 -19 l-27 -5 15 37 c8 20 19 46 24 57 13 27 66 157 96 233 15 39 24 83 24
118 0 52 -3 59 -38 94 -44 44 -92 60 -181 60 -64 0 -65 0 -111 -48 -32 -33
-57 -73 -79 -128 -18 -43 -39 -92 -46 -109 -13 -27 -74 -175 -136 -328 -16
-40 -29 -59 -43 -62 -12 -2 -61 -13 -111 -24 -49 -11 -128 -27 -175 -36 -134
-26 -273 -71 -297 -97 -55 -61 -56 -98 -3 -151 l41 -40 112 6 c62 4 164 16
227 27 63 11 116 20 116 20 2 0 -11 -34 -103 -275 -19 -49 -47 -126 -63 -170
-16 -44 -44 -120 -63 -170 -19 -49 -48 -127 -65 -172 -40 -107 -61 -146 -114
-214 -24 -31 -77 -100 -118 -155 -109 -144 -271 -304 -344 -339 -95 -47 -119
-13 -94 137 20 124 64 232 220 548 114 231 131 272 135 325 6 79 -6 106 -64
145 -100 69 -166 55 -249 -52 l-22 -28 -7 38 c-4 20 -20 61 -37 91 -27 46 -39
57 -94 82 -50 23 -78 29 -132 29 -115 0 -274 -67 -402 -168 -117 -94 -322
-310 -411 -432 -98 -136 -220 -382 -272 -550 -77 -244 -82 -413 -16 -547 92
-190 305 -220 534 -75 95 60 297 266 375 385 34 50 63 93 64 94 0 1 1 -42 1
-95 1 -85 4 -103 27 -147 88 -168 257 -190 456 -58 109 72 316 288 405 423 70
106 65 105 66 8 2 -156 49 -258 145 -312 56 -32 95 -38 179 -26 134 19 286
117 446 286 90 95 104 114 206 264 l50 75 0 -110 c0 -100 3 -116 28 -170 99
-212 286 -221 564 -28 117 82 317 297 431 464 l22 34 0 -76 c0 -181 85 -320
208 -336 119 -16 315 92 501 276 68 68 225 256 257 308 18 28 27 8 11 -24 -8
-15 -20 -53 -27 -83 -7 -30 -22 -75 -32 -100 -19 -42 -50 -127 -117 -315 -53
-147 -53 -148 -123 -180 -547 -256 -928 -584 -1100 -945 -53 -112 -60 -242
-18 -334 27 -60 106 -128 185 -160 57 -23 79 -26 182 -26 137 0 218 20 333 83
214 116 382 309 531 609 34 68 72 152 85 188 12 36 42 115 64 175 23 61 55
151 71 200 16 50 32 95 36 102 5 6 64 41 133 78 174 93 242 136 382 240 67 50
131 97 142 105 42 31 184 178 265 275 157 189 271 386 307 535 15 63 15 72 1
93 -19 30 -69 51 -101 43 -18 -4 -34 -27 -66 -92 -45 -89 -94 -168 -170 -268
-25 -33 -60 -80 -79 -105 -53 -71 -278 -291 -361 -353 -72 -54 -300 -209 -300
-204 0 4 94 268 132 371 23 61 55 146 71 190 16 44 44 121 62 170 17 50 38
104 47 120 8 17 21 48 28 70 7 22 18 54 26 70 7 17 24 57 38 90 13 33 38 94
55 135 17 41 36 84 41 95 5 11 21 49 35 85 13 36 40 103 59 150 58 140 46 209
-45 255 -111 57 -199 54 -280 -8 -35 -27 -51 -52 -96 -152 -29 -66 -65 -143
-78 -170 -14 -28 -25 -53 -25 -57 0 -4 -16 -41 -35 -82 -19 -41 -35 -78 -35
-82 0 -7 -120 -282 -176 -402 -75 -162 -274 -398 -465 -552 -101 -81 -126 -92
-149 -65 -37 45 53 346 184 612 14 29 26 55 26 58 0 2 39 85 86 182 135 280
157 333 158 384 1 64 -36 111 -109 138 -93 35 -162 23 -230 -40 -40 -37 -102
-144 -120 -209 -4 -14 -18 -45 -31 -70 -13 -25 -24 -49 -24 -53 0 -20 -204
-421 -246 -482 -11 -16 -40 -59 -64 -95 -206 -308 -527 -641 -616 -640 -33 1
-59 49 -57 105 5 120 103 433 253 815 23 58 50 128 60 156 10 28 25 64 33 80
8 16 24 56 35 89 17 50 61 161 69 174 1 2 69 14 150 27 194 30 331 65 388 99
77 45 108 152 59 206 -23 25 -54 24 -154 -6 -46 -14 -124 -32 -174 -40 -50 -9
-103 -18 -118 -21 l-27 -5 18 53 c23 63 66 171 86 213 14 29 51 120 81 195 18
48 17 111 -2 139 -9 13 -37 36 -62 52 -38 24 -56 29 -106 29 -34 -1 -79 -7
-100 -15z m-474 -1022 c-11 -21 -25 -56 -32 -78 -7 -22 -23 -62 -35 -90 -12
-27 -30 -75 -40 -105 -10 -30 -21 -59 -25 -65 -4 -5 -21 -44 -38 -85 -125
-314 -152 -371 -223 -474 -41 -59 -81 -117 -89 -129 -39 -58 -207 -251 -281
-324 -145 -140 -234 -190 -270 -147 -19 23 -14 125 11 234 29 127 158 505 270
790 48 124 104 269 131 344 8 21 21 42 29 46 15 8 65 18 320 65 74 14 160 31
190 39 30 8 65 15 78 15 l22 1 -18 -37z m-2259 -674 c60 -27 77 -131 44 -259
-63 -238 -401 -728 -609 -885 -67 -50 -107 -62 -149 -45 -37 16 -43 41 -36
144 26 358 440 985 692 1047 17 4 31 7 32 8 1 1 13 -4 26 -10z m3508 -1186
c-15 -26 -91 -199 -91 -207 0 -21 -106 -218 -169 -316 -92 -141 -241 -298
-314 -329 -64 -27 -138 -28 -162 -1 -28 31 -15 126 27 209 116 224 358 462
633 622 44 25 81 45 83 44 2 -2 -1 -11 -7 -22z M2959 5126 c-126 -51 -361
-267 -595 -547 -186 -222 -187 -224 -318 -413 -23 -32 -45 -66 -51 -75 -5 -9
-24 -36 -41 -61 -83 -120 -270 -464 -294 -540 -7 -21 -8 -22 -9 -5 -1 23 137
414 169 480 6 11 21 49 34 85 39 104 155 393 166 412 16 27 59 191 66 250 8
67 -16 149 -54 191 -36 38 -118 76 -178 83 -64 7 -245 -25 -393 -71 -63 -19
-119 -39 -125 -43 -6 -5 -40 -19 -76 -32 -160 -56 -387 -185 -598 -338 -98
-72 -149 -118 -261 -237 -220 -234 -311 -426 -298 -635 7 -118 36 -191 101
-255 61 -60 124 -85 214 -85 98 0 98 0 106 141 8 147 18 198 61 314 120 325
390 606 790 822 85 46 298 143 313 143 4 0 -26 -66 -65 -147 -40 -82 -82 -170
-92 -198 -18 -44 -76 -182 -115 -270 -8 -16 -19 -48 -26 -70 -7 -22 -23 -60
-35 -85 -12 -25 -28 -63 -35 -85 -7 -22 -18 -53 -26 -70 -7 -16 -27 -66 -45
-110 -61 -156 -87 -221 -124 -310 -47 -112 -101 -244 -127 -310 -11 -27 -26
-63 -33 -80 -7 -16 -39 -95 -70 -175 -31 -80 -66 -167 -77 -195 -11 -27 -30
-75 -41 -105 -11 -30 -35 -98 -54 -150 -19 -52 -46 -133 -59 -180 -14 -47 -32
-107 -40 -135 -9 -27 -18 -97 -21 -155 l-6 -105 34 -45 c21 -27 54 -55 84 -70
43 -21 64 -25 147 -25 109 0 147 17 159 71 38 160 184 569 274 769 7 17 34 77
58 135 71 165 191 416 280 580 70 131 172 305 187 320 3 3 27 39 54 80 209
321 635 799 941 1055 97 82 145 117 145 108 0 -5 -4 -13 -9 -19 -6 -5 -23 -40
-39 -79 -26 -62 -82 -185 -172 -380 -73 -156 -230 -519 -230 -530 0 -3 -9 -24
-20 -48 -11 -23 -31 -73 -44 -112 -14 -38 -41 -113 -61 -165 -95 -253 -183
-592 -204 -792 -31 -284 3 -475 105 -588 39 -43 130 -87 198 -96 92 -13 318
84 359 155 28 46 16 69 -41 77 -124 17 -162 93 -162 317 0 62 7 157 14 212 12
90 22 139 73 355 16 71 135 437 157 485 7 17 21 55 31 85 10 30 28 79 41 108
13 29 24 57 24 63 0 5 9 29 21 52 11 23 33 76 49 117 15 41 45 113 65 160 20
47 46 108 57 135 11 28 30 73 43 100 12 28 41 91 63 140 22 50 51 115 65 146
38 87 60 185 52 238 -9 60 -23 85 -87 154 -43 48 -65 63 -121 83 -84 30 -153
30 -228 0z M5815 2409 c-387 -27 -725 -86 -1180 -206 -115 -30 -257 -66 -314
-80 -58 -13 -112 -28 -120 -33 -9 -4 -47 -15 -86 -25 -129 -31 -564 -171 -735
-236 -219 -83 -318 -122 -354 -138 -23 -11 -95 -42 -161 -71 -385 -170 -775
-399 -902 -531 -56 -58 -97 -149 -90 -198 8 -63 53 -146 95 -173 127 -84 226
-59 457 114 144 108 297 209 500 330 119 71 392 216 495 262 58 26 119 54 135
63 17 8 66 29 110 48 44 19 118 50 165 70 279 119 833 307 1135 386 384 100
400 103 735 172 65 14 203 33 558 79 85 10 112 27 112 69 0 34 -64 76 -135 88
-95 17 -270 21 -420 10z"/>
</g>
</svg>